<svg width="10" height="10" viewBox="0 0 10 10" fill="none" xmlns="http://www.w3.org/2000/svg">
<path fill-rule="evenodd" clip-rule="evenodd" d="M2.64652 3.6465C2.74028 3.55277 2.86743 3.50011 3.00002 3.50011C3.1326 3.50011 3.25975 3.55277 3.35352 3.6465L5.00002 5.293L6.64652 3.6465C6.69264 3.59875 6.74781 3.56065 6.80881 3.53445C6.86981 3.50825 6.93543 3.49445 7.00181 3.49388C7.0682 3.4933 7.13404 3.50595 7.19549 3.53109C7.25694 3.55623 7.31277 3.59336 7.35971 3.6403C7.40666 3.68725 7.44379 3.74308 7.46893 3.80452C7.49407 3.86597 7.50672 3.93181 7.50614 3.9982C7.50556 4.06459 7.49177 4.1302 7.46557 4.1912C7.43936 4.2522 7.40127 4.30738 7.35352 4.3535L5.35352 6.3535C5.25975 6.44724 5.1326 6.49989 5.00002 6.49989C4.86743 6.49989 4.74028 6.44724 4.64652 6.3535L2.64652 4.3535C2.55278 4.25974 2.50012 4.13258 2.50012 4C2.50012 3.86742 2.55278 3.74026 2.64652 3.6465Z" fill="#F2F2F2"/>
</svg>
