<svg width="17" height="14" viewBox="0 0 17 14" fill="none" xmlns="http://www.w3.org/2000/svg">
<rect width="16.5" height="14" rx="5" fill="#DA702D"/>
<g clip-path="url(#clip0_180_10)">
<path fill-rule="evenodd" clip-rule="evenodd" d="M7.25305 4.00326C6.72262 4.00326 6.21391 4.21398 5.83884 4.58905C5.46377 4.96412 5.25305 5.47283 5.25305 6.00326C5.25305 6.5337 5.46377 7.0424 5.83884 7.41748C6.21391 7.79255 6.72262 8.00326 7.25305 8.00326C7.78348 8.00326 8.29219 7.79255 8.66727 7.41748C9.04234 7.0424 9.25305 6.5337 9.25305 6.00326C9.25305 5.47283 9.04234 4.96412 8.66727 4.58905C8.29219 4.21398 7.78348 4.00326 7.25305 4.00326ZM4.25305 6.00326C4.25299 5.53112 4.36437 5.06562 4.57814 4.64463C4.7919 4.22365 5.10201 3.85906 5.48325 3.58053C5.86449 3.30199 6.30608 3.11737 6.77212 3.04168C7.23817 2.96599 7.71549 3.00137 8.16528 3.14494C8.61507 3.28851 9.02463 3.53621 9.36063 3.86791C9.69664 4.19961 9.94962 4.60593 10.099 5.05383C10.2483 5.50173 10.2899 5.97856 10.2202 6.44554C10.1505 6.91252 9.97164 7.35646 9.69805 7.74126L12.1066 10.1498C12.1976 10.2441 12.248 10.3704 12.2469 10.5015C12.2457 10.6326 12.1932 10.758 12.1005 10.8507C12.0078 10.9434 11.8824 10.996 11.7513 10.9971C11.6202 10.9982 11.4939 10.9478 11.3996 10.8568L8.99155 8.44876C8.54273 8.7679 8.01473 8.95734 7.46539 8.99632C6.91605 9.0353 6.36659 8.92232 5.8772 8.66975C5.38782 8.41718 4.9774 8.03478 4.69091 7.56444C4.40443 7.0941 4.25294 6.55398 4.25305 6.00326Z" fill="#F2F2F2"/>
</g>
<defs>
<clipPath id="clip0_180_10">
<rect width="15.9877" height="19.9885" fill="white" transform="matrix(0.5 0 0 0.5 4.25305 2.00288)"/>
</clipPath>
</defs>
</svg>
