<svg width="11" height="14" viewBox="0 0 11 14" fill="none" xmlns="http://www.w3.org/2000/svg">
<path fill-rule="evenodd" clip-rule="evenodd" d="M2.17169 6.4375H3.26631C3.31637 5.56787 3.48175 4.76688 3.73713 4.12112C3.32594 4.37308 2.97348 4.71017 2.70346 5.10972C2.43344 5.50927 2.25212 5.96202 2.17169 6.4375ZM5.5 2.5C4.30653 2.5 3.16193 2.97411 2.31802 3.81802C1.47411 4.66193 1 5.80653 1 7C1 8.19347 1.47411 9.33807 2.31802 10.182C3.16193 11.0259 4.30653 11.5 5.5 11.5C6.69347 11.5 7.83807 11.0259 8.68198 10.182C9.52589 9.33807 10 8.19347 10 7C10 5.80653 9.52589 4.66193 8.68198 3.81802C7.83807 2.97411 6.69347 2.5 5.5 2.5ZM5.5 3.625C5.45725 3.625 5.3695 3.643 5.23844 3.77238C5.10456 3.904 4.95888 4.12281 4.82388 4.43725C4.60506 4.94744 4.44531 5.64212 4.393 6.4375H6.607C6.55469 5.64212 6.39494 4.94744 6.17612 4.43725C6.04112 4.12225 5.89488 3.904 5.76156 3.77238C5.6305 3.643 5.54275 3.625 5.5 3.625ZM7.73369 6.4375C7.68362 5.56787 7.51825 4.76688 7.26288 4.12112C7.67406 4.37308 8.02652 4.71017 8.29654 5.10972C8.56656 5.50927 8.74788 5.96202 8.82831 6.4375H7.73369ZM6.607 7.5625H4.393C4.44531 8.35787 4.60506 9.05256 4.82388 9.56275C4.95888 9.87775 5.10512 10.096 5.23844 10.2276C5.3695 10.357 5.45725 10.375 5.5 10.375C5.54275 10.375 5.6305 10.357 5.76156 10.2276C5.89544 10.096 6.04169 9.87719 6.17612 9.56275C6.39494 9.05256 6.55469 8.35787 6.607 7.5625ZM7.26288 9.87887C7.51825 9.23369 7.68362 8.43213 7.73369 7.5625H8.82831C8.74788 8.03798 8.56656 8.49073 8.29654 8.89028C8.02652 9.28983 7.67406 9.62692 7.26288 9.87887ZM3.73713 9.87887C3.48175 9.23313 3.31638 8.43213 3.26688 7.5625H2.17169C2.25212 8.03798 2.43344 8.49073 2.70346 8.89028C2.97348 9.28983 3.32594 9.62692 3.73713 9.87887Z" fill="#F2F2F2"/>
</svg>
