<svg width="16" height="17" viewBox="0 0 16 17" fill="none" xmlns="http://www.w3.org/2000/svg">
<g filter="url(#filter0_d_0_9)">
<rect x="4.58085" y="4.07187" width="6.1078" height="6.61679" fill="#F2F2F2"/>
<path fill-rule="evenodd" clip-rule="evenodd" d="M7.73655 12.9282C9.24845 12.9282 10.6984 12.3276 11.7675 11.2585C12.8366 10.1894 13.4372 8.73946 13.4372 7.22757C13.4372 5.71567 12.8366 4.2657 11.7675 3.19662C10.6984 2.12755 9.24845 1.52695 7.73655 1.52695C6.22465 1.52695 4.77468 2.12755 3.70561 3.19662C2.63653 4.2657 2.03593 5.71567 2.03593 7.22757C2.03593 8.73946 2.63653 10.1894 3.70561 11.2585C4.77468 12.3276 6.22465 12.9282 7.73655 12.9282ZM8.44913 5.08984C8.44913 4.90085 8.37405 4.7196 8.24042 4.58597C8.10678 4.45233 7.92554 4.37726 7.73655 4.37726C7.54756 4.37726 7.36632 4.45233 7.23268 4.58597C7.09905 4.7196 7.02397 4.90085 7.02397 5.08984V6.51499H5.59882C5.40983 6.51499 5.22858 6.59006 5.09495 6.7237C4.96132 6.85733 4.88624 7.03858 4.88624 7.22757C4.88624 7.41655 4.96132 7.5978 5.09495 7.73143C5.22858 7.86507 5.40983 7.94014 5.59882 7.94014H7.02397V9.3653C7.02397 9.55428 7.09905 9.73553 7.23268 9.86916C7.36632 10.0028 7.54756 10.0779 7.73655 10.0779C7.92554 10.0779 8.10678 10.0028 8.24042 9.86916C8.37405 9.73553 8.44913 9.55428 8.44913 9.3653V7.94014H9.87428C10.0633 7.94014 10.2445 7.86507 10.3781 7.73143C10.5118 7.5978 10.5869 7.41655 10.5869 7.22757C10.5869 7.03858 10.5118 6.85733 10.3781 6.7237C10.2445 6.59006 10.0633 6.51499 9.87428 6.51499H8.44913V5.08984Z" fill="#DA702D"/>
</g>
<defs>
<filter id="filter0_d_0_9" x="-1.52695" y="0" width="18.527" height="18.527" filterUnits="userSpaceOnUse" color-interpolation-filters="sRGB">
<feFlood flood-opacity="0" result="BackgroundImageFix"/>
<feColorMatrix in="SourceAlpha" type="matrix" values="0 0 0 0 0 0 0 0 0 0 0 0 0 0 0 0 0 0 127 0" result="hardAlpha"/>
<feOffset dy="4"/>
<feGaussianBlur stdDeviation="2"/>
<feComposite in2="hardAlpha" operator="out"/>
<feColorMatrix type="matrix" values="0 0 0 0 0 0 0 0 0 0 0 0 0 0 0 0 0 0 0.25 0"/>
<feBlend mode="normal" in2="BackgroundImageFix" result="effect1_dropShadow_0_9"/>
<feBlend mode="normal" in="SourceGraphic" in2="effect1_dropShadow_0_9" result="shape"/>
</filter>
</defs>
</svg>
